<svg width="17" height="15" viewBox="0 0 17 15" fill="none" xmlns="http://www.w3.org/2000/svg">
<path d="M0.75 0.75H15.9808V11.9192H0.75V0.75Z" stroke="white" stroke-width="1.5" stroke-linecap="round" stroke-linejoin="round"/>
<path d="M10.9043 0.75V11.9192" stroke="white" stroke-width="1.5" stroke-linecap="round" stroke-linejoin="round"/>
<path d="M12.9346 6.8423H13.95" stroke="white" stroke-width="1.5" stroke-linecap="round" stroke-linejoin="round"/>
<path d="M12.9346 8.87308H13.95" stroke="white" stroke-width="1.5" stroke-linecap="round" stroke-linejoin="round"/>
<path d="M13.4423 4.05C13.4925 4.05 13.5416 4.06489 13.5834 4.09278C13.6251 4.12068 13.6576 4.16032 13.6768 4.20671C13.6961 4.25309 13.7011 4.30413 13.6913 4.35337C13.6815 4.40261 13.6573 4.44784 13.6218 4.48335C13.5863 4.51885 13.5411 4.54302 13.4918 4.55282C13.4426 4.56261 13.3916 4.55759 13.3452 4.53837C13.2988 4.51916 13.2591 4.48662 13.2313 4.44488C13.2034 4.40313 13.1885 4.35406 13.1885 4.30385C13.1885 4.23652 13.2152 4.17196 13.2628 4.12435C13.3104 4.07675 13.375 4.05 13.4423 4.05" stroke="white" stroke-width="1.5" stroke-linecap="round" stroke-linejoin="round"/>
<path d="M1.76562 13.95L3.79639 11.9192" stroke="white" stroke-width="1.5" stroke-linecap="round" stroke-linejoin="round"/>
<path d="M14.9653 13.95L12.9346 11.9192" stroke="white" stroke-width="1.5" stroke-linecap="round" stroke-linejoin="round"/>
</svg>
