<svg width="18" height="18" viewBox="0 0 18 18" fill="none" xmlns="http://www.w3.org/2000/svg">
<path d="M0.75 16.75V0.75" stroke="white" stroke-width="1.5" stroke-linecap="round" stroke-linejoin="round"/>
<path d="M16.75 0.75V16.75" stroke="white" stroke-width="1.5" stroke-linecap="round" stroke-linejoin="round"/>
<path d="M5.0166 0.75H12.4833V7.15H5.0166V0.75Z" stroke="white" stroke-width="1.5" stroke-linecap="round" stroke-linejoin="round"/>
<path d="M5.0166 10.35H12.4833V16.75H5.0166V10.35Z" stroke="white" stroke-width="1.5" stroke-linecap="round" stroke-linejoin="round"/>
<path d="M3.14954 2.35001C3.14954 2.40275 3.1339 2.45431 3.1046 2.49816C3.0753 2.54202 3.03365 2.57619 2.98493 2.59638C2.9362 2.61656 2.88258 2.62184 2.83085 2.61155C2.77913 2.60126 2.73161 2.57587 2.69432 2.53857C2.65702 2.50128 2.63162 2.45376 2.62133 2.40203C2.61105 2.35031 2.61633 2.29669 2.63651 2.24796C2.65669 2.19923 2.69087 2.15759 2.73473 2.12828C2.77858 2.09898 2.83014 2.08334 2.88288 2.08334C2.9536 2.08334 3.02143 2.11144 3.07144 2.16145C3.12145 2.21146 3.14954 2.27929 3.14954 2.35001Z" stroke="white" stroke-width="1.5" stroke-linecap="round" stroke-linejoin="round"/>
<path d="M3.14954 6.61667C3.14954 6.66941 3.1339 6.72097 3.1046 6.76482C3.0753 6.80868 3.03365 6.84286 2.98493 6.86304C2.9362 6.88322 2.88258 6.8885 2.83085 6.87822C2.77913 6.86793 2.73161 6.84253 2.69432 6.80523C2.65702 6.76794 2.63162 6.72043 2.62133 6.6687C2.61105 6.61697 2.61633 6.56335 2.63651 6.51462C2.65669 6.4659 2.69087 6.42425 2.73473 6.39495C2.77858 6.36565 2.83014 6.35001 2.88288 6.35001C2.9536 6.35001 3.02143 6.3781 3.07144 6.42811C3.12145 6.47812 3.14954 6.54595 3.14954 6.61667Z" stroke="white" stroke-width="1.5" stroke-linecap="round" stroke-linejoin="round"/>
<path d="M3.14954 10.8833C3.14954 10.9361 3.1339 10.9876 3.1046 11.0315C3.0753 11.0753 3.03365 11.1095 2.98493 11.1297C2.9362 11.1499 2.88258 11.1552 2.83085 11.1449C2.77913 11.1346 2.73161 11.1092 2.69432 11.0719C2.65702 11.0346 2.63162 10.9871 2.62133 10.9354C2.61105 10.8836 2.61633 10.83 2.63651 10.7813C2.65669 10.7326 2.69087 10.6909 2.73473 10.6616C2.77858 10.6323 2.83014 10.6167 2.88288 10.6167C2.9536 10.6167 3.02143 10.6448 3.07144 10.6948C3.12145 10.7448 3.14954 10.8126 3.14954 10.8833Z" stroke="white" stroke-width="1.5" stroke-linecap="round" stroke-linejoin="round"/>
<path d="M3.14954 15.15C3.14954 15.2027 3.1339 15.2543 3.1046 15.2982C3.0753 15.342 3.03365 15.3762 2.98493 15.3964C2.9362 15.4165 2.88258 15.4218 2.83085 15.4115C2.77913 15.4013 2.73161 15.3759 2.69432 15.3386C2.65702 15.3013 2.63162 15.2537 2.62133 15.202C2.61105 15.1503 2.61633 15.0967 2.63651 15.0479C2.65669 14.9992 2.69087 14.9576 2.73473 14.9283C2.77858 14.899 2.83014 14.8833 2.88288 14.8833C2.9536 14.8833 3.02143 14.9114 3.07144 14.9614C3.12145 15.0114 3.14954 15.0793 3.14954 15.15Z" stroke="white" stroke-width="1.5" stroke-linecap="round" stroke-linejoin="round"/>
<path d="M14.8829 2.35001C14.8829 2.40275 14.8673 2.45431 14.838 2.49816C14.8087 2.54202 14.7671 2.57619 14.7183 2.59638C14.6696 2.61656 14.616 2.62184 14.5643 2.61155C14.5125 2.60126 14.465 2.57587 14.4277 2.53857C14.3904 2.50128 14.365 2.45376 14.3547 2.40203C14.3444 2.35031 14.3497 2.29669 14.3699 2.24796C14.3901 2.19923 14.4243 2.15759 14.4681 2.12828C14.512 2.09898 14.5635 2.08334 14.6163 2.08334C14.687 2.08334 14.7548 2.11144 14.8048 2.16145C14.8548 2.21146 14.8829 2.27929 14.8829 2.35001Z" stroke="white" stroke-width="1.5" stroke-linecap="round" stroke-linejoin="round"/>
<path d="M14.8829 6.61667C14.8829 6.66941 14.8673 6.72097 14.838 6.76482C14.8087 6.80868 14.7671 6.84286 14.7183 6.86304C14.6696 6.88322 14.616 6.8885 14.5643 6.87822C14.5125 6.86793 14.465 6.84253 14.4277 6.80523C14.3904 6.76794 14.365 6.72043 14.3547 6.6687C14.3444 6.61697 14.3497 6.56335 14.3699 6.51462C14.3901 6.4659 14.4243 6.42425 14.4681 6.39495C14.512 6.36565 14.5635 6.35001 14.6163 6.35001C14.687 6.35001 14.7548 6.3781 14.8048 6.42811C14.8548 6.47812 14.8829 6.54595 14.8829 6.61667Z" stroke="white" stroke-width="1.5" stroke-linecap="round" stroke-linejoin="round"/>
<path d="M14.8829 10.8833C14.8829 10.9361 14.8673 10.9876 14.838 11.0315C14.8087 11.0753 14.7671 11.1095 14.7183 11.1297C14.6696 11.1499 14.616 11.1552 14.5643 11.1449C14.5125 11.1346 14.465 11.1092 14.4277 11.0719C14.3904 11.0346 14.365 10.9871 14.3547 10.9354C14.3444 10.8836 14.3497 10.83 14.3699 10.7813C14.3901 10.7326 14.4243 10.6909 14.4681 10.6616C14.512 10.6323 14.5635 10.6167 14.6163 10.6167C14.687 10.6167 14.7548 10.6448 14.8048 10.6948C14.8548 10.7448 14.8829 10.8126 14.8829 10.8833Z" stroke="white" stroke-width="1.5" stroke-linecap="round" stroke-linejoin="round"/>
<path d="M14.8829 15.15C14.8829 15.2027 14.8673 15.2543 14.838 15.2982C14.8087 15.342 14.7671 15.3762 14.7183 15.3964C14.6696 15.4165 14.616 15.4218 14.5643 15.4115C14.5125 15.4013 14.465 15.3759 14.4277 15.3386C14.3904 15.3013 14.365 15.2537 14.3547 15.202C14.3444 15.1503 14.3497 15.0967 14.3699 15.0479C14.3901 14.9992 14.4243 14.9576 14.4681 14.9283C14.512 14.899 14.5635 14.8833 14.6163 14.8833C14.687 14.8833 14.7548 14.9114 14.8048 14.9614C14.8548 15.0114 14.8829 15.0793 14.8829 15.15Z" stroke="white" stroke-width="1.5" stroke-linecap="round" stroke-linejoin="round"/>
</svg>
